<?xml version="1.0" standalone="no"?>
<!DOCTYPE svg PUBLIC "-//W3C//DTD SVG 20010904//EN"
 "http://www.w3.org/TR/2001/REC-SVG-20010904/DTD/svg10.dtd">
<svg version="1.0" xmlns="http://www.w3.org/2000/svg"
 width="600.000000pt" height="600.000000pt" viewBox="0 0 600.000000 600.000000"
 preserveAspectRatio="xMidYMid meet">
<metadata>
Created by potrace 1.14, written by Peter Selinger 2001-2017
</metadata>
<g transform="translate(0.000000,600.000000) scale(0.100000,-0.100000)"
fill="#000000" stroke="none">
<path d="M0 3000 l0 -3000 3000 0 3000 0 0 3000 0 3000 -3000 0 -3000 0 0
-3000z m3105 1784 c263 -43 526 -185 741 -399 215 -215 304 -419 304 -705 0
-458 -209 -818 -617 -1064 -273 -164 -637 -239 -974 -200 -77 9 -143 14 -146
11 -7 -8 -22 -645 -23 -1002 0 -202 -4 -335 -11 -360 -16 -56 -91 -129 -149
-145 -129 -35 -255 46 -280 179 -13 69 -13 682 0 1041 10 279 23 515 61 1075
11 171 24 522 29 780 10 498 11 506 41 600 34 107 101 165 191 165 23 0 79 7
123 16 94 18 389 33 525 27 52 -2 135 -11 185 -19z"/>
<path d="M2568 4332 c-31 -4 -60 -10 -64 -14 -4 -4 -11 -155 -15 -335 -4 -181
-17 -496 -29 -702 -11 -206 -19 -375 -17 -377 2 -2 68 -11 147 -20 124 -15
162 -16 260 -6 271 28 475 118 640 282 130 129 190 258 210 446 12 116 0 197
-46 293 -83 178 -332 352 -594 417 -71 17 -389 28 -492 16z"/>
</g>
</svg>
